<svg xmlns="http://www.w3.org/2000/svg" viewBox="0 0 410 404"><path fill="#41D1FF" d="M399.641 59.5246L215.643 388.545C211.844 395.338 202.084 395.378 198.228 388.618L10.5817 59.5563C6.38087 52.142 12.6021 43.2148 21.0707 44.7333L205.179 77.9264C206.86 78.2295 208.583 78.2295 210.265 77.9264L390.6 44.7723C399.065 44.5247 405.281 52.1245 399.641 59.5246Z"></path><path fill="#BD34FE" d="M292.965 1.5744L156.801 28.2552C153.27 28.9532 150.598 31.6873 149.957 35.2024L122.434 156.949C121.69 160.495 124.412 163.838 128.014 163.838H273.5C277.102 163.838 279.825 160.495 279.08 156.949L262.165 35.2024C261.524 31.6873 258.852 28.9532 255.32 28.2552L292.965 1.5744Z"></path></svg>
